<mxfile host="app.diagrams.net" modified="2021-05-13T02:08:23.758Z" agent="5.0 (Windows)" etag="Qo07-PWui-xoc22f53hD" version="14.6.12" type="github">
  <diagram id="wYBN3OVyFF_QrZBscij-" name="Page-1">
    <mxGraphModel dx="1146" dy="554" grid="1" gridSize="10" guides="1" tooltips="1" connect="1" arrows="1" fold="1" page="1" pageScale="1" pageWidth="850" pageHeight="1100" math="0" shadow="0">
      <root>
        <mxCell id="0" />
        <mxCell id="1" parent="0" />
        <mxCell id="LbvCTRZSXGQxMDePPMeD-3" value="" style="ellipse;html=1;shape=startState;fillColor=#000000;strokeColor=#ff0000;" parent="1" vertex="1">
          <mxGeometry x="335" y="130" width="40" height="40" as="geometry" />
        </mxCell>
        <mxCell id="LbvCTRZSXGQxMDePPMeD-4" value="" style="edgeStyle=orthogonalEdgeStyle;html=1;verticalAlign=bottom;endArrow=open;endSize=8;strokeColor=#ff0000;entryX=0.5;entryY=0;entryDx=0;entryDy=0;" parent="1" source="LbvCTRZSXGQxMDePPMeD-3" target="LbvCTRZSXGQxMDePPMeD-11" edge="1">
          <mxGeometry relative="1" as="geometry">
            <mxPoint x="355" y="250" as="targetPoint" />
            <Array as="points" />
          </mxGeometry>
        </mxCell>
        <mxCell id="LbvCTRZSXGQxMDePPMeD-11" value="Open Application" style="rounded=1;whiteSpace=wrap;html=1;arcSize=40;fontColor=#000000;fillColor=#ffffc0;strokeColor=#ff0000;" parent="1" vertex="1">
          <mxGeometry x="295" y="210" width="120" height="40" as="geometry" />
        </mxCell>
        <mxCell id="LbvCTRZSXGQxMDePPMeD-12" value="" style="edgeStyle=orthogonalEdgeStyle;html=1;verticalAlign=bottom;endArrow=open;endSize=8;strokeColor=#ff0000;entryX=0.5;entryY=0;entryDx=0;entryDy=0;" parent="1" source="LbvCTRZSXGQxMDePPMeD-11" target="LbvCTRZSXGQxMDePPMeD-13" edge="1">
          <mxGeometry relative="1" as="geometry">
            <mxPoint x="355" y="350" as="targetPoint" />
          </mxGeometry>
        </mxCell>
        <mxCell id="LbvCTRZSXGQxMDePPMeD-13" value="Condition" style="rhombus;whiteSpace=wrap;html=1;fillColor=#ffffc0;strokeColor=#ff0000;" parent="1" vertex="1">
          <mxGeometry x="315" y="300" width="80" height="40" as="geometry" />
        </mxCell>
        <mxCell id="LbvCTRZSXGQxMDePPMeD-14" value="no" style="edgeStyle=orthogonalEdgeStyle;html=1;align=left;verticalAlign=bottom;endArrow=open;endSize=8;strokeColor=#ff0000;entryX=1;entryY=0.5;entryDx=0;entryDy=0;exitX=1;exitY=0.5;exitDx=0;exitDy=0;" parent="1" source="LbvCTRZSXGQxMDePPMeD-13" target="LbvCTRZSXGQxMDePPMeD-3" edge="1">
          <mxGeometry x="-1" relative="1" as="geometry">
            <mxPoint x="495" y="150" as="targetPoint" />
            <Array as="points">
              <mxPoint x="455" y="320" />
              <mxPoint x="455" y="150" />
            </Array>
          </mxGeometry>
        </mxCell>
        <mxCell id="LbvCTRZSXGQxMDePPMeD-15" value="yes" style="edgeStyle=orthogonalEdgeStyle;html=1;align=left;verticalAlign=top;endArrow=open;endSize=8;strokeColor=#ff0000;entryX=0;entryY=0;entryDx=0;entryDy=0;" parent="1" source="LbvCTRZSXGQxMDePPMeD-13" target="LbvCTRZSXGQxMDePPMeD-18" edge="1">
          <mxGeometry x="-1" relative="1" as="geometry">
            <mxPoint x="355" y="450" as="targetPoint" />
          </mxGeometry>
        </mxCell>
        <mxCell id="LbvCTRZSXGQxMDePPMeD-44" style="edgeStyle=orthogonalEdgeStyle;rounded=0;orthogonalLoop=1;jettySize=auto;html=1;exitX=0.5;exitY=1;exitDx=0;exitDy=0;entryX=0.5;entryY=0;entryDx=0;entryDy=0;" parent="1" source="LbvCTRZSXGQxMDePPMeD-18" target="LbvCTRZSXGQxMDePPMeD-40" edge="1">
          <mxGeometry relative="1" as="geometry">
            <mxPoint x="355" y="510" as="targetPoint" />
          </mxGeometry>
        </mxCell>
        <mxCell id="LbvCTRZSXGQxMDePPMeD-18" value="Main Screen " style="rhombus;whiteSpace=wrap;html=1;fillColor=#ffffc0;strokeColor=#ff0000;" parent="1" vertex="1">
          <mxGeometry x="315" y="380" width="80" height="40" as="geometry" />
        </mxCell>
        <mxCell id="LbvCTRZSXGQxMDePPMeD-19" value="Track Work Miles" style="edgeStyle=orthogonalEdgeStyle;html=1;align=left;verticalAlign=bottom;endArrow=open;endSize=8;strokeColor=#ff0000;entryX=0;entryY=0.5;entryDx=0;entryDy=0;exitX=1;exitY=0.5;exitDx=0;exitDy=0;" parent="1" source="LbvCTRZSXGQxMDePPMeD-18" target="LbvCTRZSXGQxMDePPMeD-21" edge="1">
          <mxGeometry x="-0.4815" y="10" relative="1" as="geometry">
            <mxPoint x="495" y="470" as="targetPoint" />
            <mxPoint as="offset" />
          </mxGeometry>
        </mxCell>
        <mxCell id="LbvCTRZSXGQxMDePPMeD-20" value="Google Map Integration" style="edgeStyle=orthogonalEdgeStyle;html=1;align=left;verticalAlign=top;endArrow=open;endSize=8;strokeColor=#ff0000;entryX=0;entryY=0.5;entryDx=0;entryDy=0;exitX=1;exitY=1;exitDx=0;exitDy=0;" parent="1" source="LbvCTRZSXGQxMDePPMeD-18" target="LbvCTRZSXGQxMDePPMeD-34" edge="1">
          <mxGeometry x="-1" relative="1" as="geometry">
            <mxPoint x="355" y="470" as="targetPoint" />
          </mxGeometry>
        </mxCell>
        <mxCell id="LbvCTRZSXGQxMDePPMeD-21" value="Input (Add) Work Miles" style="rounded=1;whiteSpace=wrap;html=1;arcSize=40;fontColor=#000000;fillColor=#ffffc0;strokeColor=#ff0000;" parent="1" vertex="1">
          <mxGeometry x="500" y="380" width="120" height="40" as="geometry" />
        </mxCell>
        <mxCell id="LbvCTRZSXGQxMDePPMeD-22" value="" style="edgeStyle=orthogonalEdgeStyle;html=1;verticalAlign=bottom;endArrow=open;endSize=8;strokeColor=#ff0000;exitX=1;exitY=0.5;exitDx=0;exitDy=0;entryX=0;entryY=0.5;entryDx=0;entryDy=0;" parent="1" source="LbvCTRZSXGQxMDePPMeD-21" target="LbvCTRZSXGQxMDePPMeD-28" edge="1">
          <mxGeometry relative="1" as="geometry">
            <mxPoint x="670" y="400" as="targetPoint" />
          </mxGeometry>
        </mxCell>
        <mxCell id="LbvCTRZSXGQxMDePPMeD-28" value="Return to Main Screen" style="rhombus;whiteSpace=wrap;html=1;fillColor=#ffffc0;strokeColor=#ff0000;" parent="1" vertex="1">
          <mxGeometry x="670" y="380" width="80" height="40" as="geometry" />
        </mxCell>
        <mxCell id="LbvCTRZSXGQxMDePPMeD-29" value="Yes" style="edgeStyle=orthogonalEdgeStyle;html=1;align=left;verticalAlign=bottom;endArrow=open;endSize=8;strokeColor=#ff0000;" parent="1" source="LbvCTRZSXGQxMDePPMeD-28" edge="1">
          <mxGeometry x="-1" relative="1" as="geometry">
            <mxPoint x="355" y="380" as="targetPoint" />
            <Array as="points">
              <mxPoint x="710" y="350" />
              <mxPoint x="380" y="350" />
              <mxPoint x="380" y="370" />
              <mxPoint x="355" y="370" />
            </Array>
          </mxGeometry>
        </mxCell>
        <mxCell id="LbvCTRZSXGQxMDePPMeD-30" value="No" style="edgeStyle=orthogonalEdgeStyle;html=1;align=left;verticalAlign=top;endArrow=open;endSize=8;strokeColor=#ff0000;entryX=0.5;entryY=1;entryDx=0;entryDy=0;" parent="1" source="LbvCTRZSXGQxMDePPMeD-28" target="LbvCTRZSXGQxMDePPMeD-21" edge="1">
          <mxGeometry x="-1" relative="1" as="geometry">
            <mxPoint x="730" y="480" as="targetPoint" />
            <Array as="points">
              <mxPoint x="710" y="460" />
              <mxPoint x="560" y="460" />
            </Array>
          </mxGeometry>
        </mxCell>
        <mxCell id="LbvCTRZSXGQxMDePPMeD-31" value="View Records" style="rounded=1;whiteSpace=wrap;html=1;arcSize=40;fontColor=#000000;fillColor=#ffffc0;strokeColor=#ff0000;" parent="1" vertex="1">
          <mxGeometry x="160" y="380" width="120" height="40" as="geometry" />
        </mxCell>
        <mxCell id="LbvCTRZSXGQxMDePPMeD-32" value="" style="edgeStyle=orthogonalEdgeStyle;html=1;verticalAlign=bottom;endArrow=open;endSize=8;strokeColor=#ff0000;entryX=0.5;entryY=0;entryDx=0;entryDy=0;" parent="1" source="LbvCTRZSXGQxMDePPMeD-31" target="LbvCTRZSXGQxMDePPMeD-45" edge="1">
          <mxGeometry relative="1" as="geometry">
            <mxPoint x="220" y="460" as="targetPoint" />
          </mxGeometry>
        </mxCell>
        <mxCell id="LbvCTRZSXGQxMDePPMeD-34" value="Configure Integration" style="rounded=1;whiteSpace=wrap;html=1;arcSize=40;fontColor=#000000;fillColor=#ffffc0;strokeColor=#ff0000;" parent="1" vertex="1">
          <mxGeometry x="490" y="480" width="120" height="40" as="geometry" />
        </mxCell>
        <mxCell id="LbvCTRZSXGQxMDePPMeD-40" value="" style="ellipse;html=1;shape=endState;fillColor=#000000;strokeColor=#ff0000;" parent="1" vertex="1">
          <mxGeometry x="340" y="650" width="30" height="30" as="geometry" />
        </mxCell>
        <mxCell id="LbvCTRZSXGQxMDePPMeD-42" value="" style="edgeStyle=orthogonalEdgeStyle;html=1;verticalAlign=bottom;endArrow=open;endSize=8;strokeColor=#ff0000;exitX=0;exitY=0.5;exitDx=0;exitDy=0;entryX=1;entryY=0.5;entryDx=0;entryDy=0;" parent="1" source="LbvCTRZSXGQxMDePPMeD-18" target="LbvCTRZSXGQxMDePPMeD-31" edge="1">
          <mxGeometry relative="1" as="geometry">
            <mxPoint x="370" y="480" as="targetPoint" />
            <mxPoint x="325" y="460" as="sourcePoint" />
          </mxGeometry>
        </mxCell>
        <mxCell id="LbvCTRZSXGQxMDePPMeD-45" value="Display Record Table" style="rounded=1;whiteSpace=wrap;html=1;arcSize=40;fontColor=#000000;fillColor=#ffffc0;strokeColor=#ff0000;" parent="1" vertex="1">
          <mxGeometry x="160" y="470" width="120" height="40" as="geometry" />
        </mxCell>
        <mxCell id="LbvCTRZSXGQxMDePPMeD-49" value="Return to Main Screen?" style="rhombus;whiteSpace=wrap;html=1;fillColor=#ffffc0;strokeColor=#ff0000;" parent="1" vertex="1">
          <mxGeometry x="180" y="530" width="80" height="40" as="geometry" />
        </mxCell>
        <mxCell id="LbvCTRZSXGQxMDePPMeD-50" value="Yes" style="edgeStyle=orthogonalEdgeStyle;html=1;align=left;verticalAlign=bottom;endArrow=open;endSize=8;strokeColor=#ff0000;entryX=0;entryY=1;entryDx=0;entryDy=0;" parent="1" source="LbvCTRZSXGQxMDePPMeD-49" target="LbvCTRZSXGQxMDePPMeD-18" edge="1">
          <mxGeometry x="-1" relative="1" as="geometry">
            <mxPoint x="360" y="550" as="targetPoint" />
          </mxGeometry>
        </mxCell>
        <mxCell id="LbvCTRZSXGQxMDePPMeD-51" value="No" style="edgeStyle=orthogonalEdgeStyle;html=1;align=left;verticalAlign=top;endArrow=open;endSize=8;strokeColor=#ff0000;entryX=0;entryY=0.5;entryDx=0;entryDy=0;" parent="1" source="LbvCTRZSXGQxMDePPMeD-49" target="LbvCTRZSXGQxMDePPMeD-45" edge="1">
          <mxGeometry x="0.1675" y="-10" relative="1" as="geometry">
            <mxPoint x="220" y="630" as="targetPoint" />
            <Array as="points">
              <mxPoint x="140" y="550" />
              <mxPoint x="140" y="490" />
            </Array>
            <mxPoint as="offset" />
          </mxGeometry>
        </mxCell>
        <mxCell id="LbvCTRZSXGQxMDePPMeD-53" value="Return to Main Screen?" style="rhombus;whiteSpace=wrap;html=1;fillColor=#ffffc0;strokeColor=#ff0000;" parent="1" vertex="1">
          <mxGeometry x="510" y="550" width="80" height="40" as="geometry" />
        </mxCell>
        <mxCell id="LbvCTRZSXGQxMDePPMeD-54" value="no" style="edgeStyle=orthogonalEdgeStyle;html=1;align=left;verticalAlign=bottom;endArrow=open;endSize=8;strokeColor=#ff0000;entryX=1;entryY=0.5;entryDx=0;entryDy=0;" parent="1" source="LbvCTRZSXGQxMDePPMeD-53" target="LbvCTRZSXGQxMDePPMeD-34" edge="1">
          <mxGeometry x="0.1541" y="-15" relative="1" as="geometry">
            <mxPoint x="650" y="580" as="targetPoint" />
            <Array as="points">
              <mxPoint x="550" y="535" />
              <mxPoint x="640" y="535" />
              <mxPoint x="640" y="500" />
            </Array>
            <mxPoint as="offset" />
          </mxGeometry>
        </mxCell>
        <mxCell id="LbvCTRZSXGQxMDePPMeD-55" value="yes" style="edgeStyle=orthogonalEdgeStyle;html=1;align=left;verticalAlign=top;endArrow=open;endSize=8;strokeColor=#ff0000;entryX=1;entryY=1;entryDx=0;entryDy=0;" parent="1" source="LbvCTRZSXGQxMDePPMeD-53" target="LbvCTRZSXGQxMDePPMeD-18" edge="1">
          <mxGeometry x="-0.7963" relative="1" as="geometry">
            <mxPoint x="510" y="660" as="targetPoint" />
            <mxPoint as="offset" />
          </mxGeometry>
        </mxCell>
        <mxCell id="qbQ9MJm2UoM9LIp1NeHh-2" value="" style="edgeStyle=orthogonalEdgeStyle;html=1;verticalAlign=bottom;endArrow=open;endSize=8;strokeColor=#ff0000;exitX=0;exitY=0.5;exitDx=0;exitDy=0;" edge="1" parent="1" source="LbvCTRZSXGQxMDePPMeD-31">
          <mxGeometry relative="1" as="geometry">
            <mxPoint x="120" y="400" as="targetPoint" />
            <mxPoint x="230" y="430" as="sourcePoint" />
          </mxGeometry>
        </mxCell>
        <mxCell id="qbQ9MJm2UoM9LIp1NeHh-3" value="Display Total Miles" style="rounded=1;whiteSpace=wrap;html=1;arcSize=40;fontColor=#000000;fillColor=#ffffc0;strokeColor=#ff0000;" vertex="1" parent="1">
          <mxGeometry y="380" width="120" height="40" as="geometry" />
        </mxCell>
      </root>
    </mxGraphModel>
  </diagram>
</mxfile>
